<svg width="111" height="35" viewBox="0 0 111 35" fill="none" xmlns="http://www.w3.org/2000/svg">
    <path d="M106.449 34.3086H4.59751C2.31603 34.3086 0.523438 32.4732 0.523438 30.1372V5.10915C0.523438 2.7732 2.31603 0.937805 4.59751 0.937805H106.449C108.731 0.937805 110.523 2.7732 110.523 5.10915V30.1372C110.523 32.4732 108.731 34.3086 106.449 34.3086Z" fill="black"/>
    <path fill-rule="evenodd" clip-rule="evenodd" d="M4.59751 0.937805H106.449C108.731 0.937805 110.523 2.85663 110.523 5.10915V30.1372C110.523 32.4732 108.731 34.3086 106.449 34.3086H4.59751C2.31603 34.3086 0.523438 32.4732 0.523438 30.1372V5.10915C0.523438 2.85663 2.31603 0.937805 4.59751 0.937805ZM109.872 5.1091C109.872 3.19028 108.324 1.60516 106.45 1.60516H4.598C2.72393 1.60516 1.17578 3.19028 1.17578 5.1091V30.1372C1.17578 32.056 2.72393 33.6411 4.598 33.6411H106.45C108.324 33.6411 109.872 32.056 109.872 30.1372V5.1091Z" fill="#A6A6A6"/>
    <path fill-rule="evenodd" clip-rule="evenodd" d="M38.5744 11.1159C38.9818 10.6988 39.1447 10.1148 39.1447 9.44737V9.11366H36.7818V9.78107H38.5744C38.5744 10.1982 38.4114 10.5319 38.167 10.7822C37.7596 11.1993 37.3522 11.3662 36.7818 11.3662C36.2929 11.3662 35.8855 11.1159 35.4781 10.7822C35.0707 10.4485 34.9077 9.94793 34.9077 9.36394C34.9077 8.77995 35.0707 8.27939 35.4781 7.94568C35.804 7.52854 36.2929 7.36169 36.7818 7.36169C37.3522 7.36169 37.7596 7.52854 38.0855 7.94568L38.4929 7.52854C38.3299 7.27826 38.0855 7.11141 37.7596 6.94456C37.4336 6.7777 37.1077 6.69427 36.7818 6.69427C36.0485 6.69427 35.4781 6.94456 34.9892 7.44512C34.5003 7.94568 34.2559 8.52967 34.2559 9.28051C34.2559 10.0314 34.5003 10.6153 34.9892 11.1159C35.4781 11.6165 36.0485 11.8667 36.7818 11.8667C37.5151 11.8667 38.0855 11.6165 38.5744 11.1159ZM40.6929 7.36163H42.8929V6.77764H40.041V11.7833H42.8929V11.1158H40.6929V9.53073H42.7299V8.94675H40.6929V7.36163ZM45.5818 11.7833H44.93V7.36163H43.5448V6.77764H46.967V7.36163H45.5818V11.7833ZM49.3295 6.77765V11.7833H49.9814V6.77765H49.3295ZM52.6704 11.7833H52.1V7.36164H50.7148V6.77765H54.0556V7.36164H52.6704V11.7833ZM58.6998 11.8667C59.4331 11.8667 60.0035 11.6165 60.4924 11.1159C60.9812 10.6153 61.2257 10.0314 61.2257 9.28051C61.2257 8.52967 60.9812 7.94568 60.4924 7.44512C60.0035 6.94456 59.4331 6.69427 58.6998 6.69427C57.9664 6.69427 57.3961 6.94456 56.9072 7.44512C56.4183 7.94568 56.1738 8.52967 56.1738 9.28051C56.1738 10.0314 56.4183 10.6153 56.9072 11.1159C57.3961 11.6165 57.9664 11.8667 58.6998 11.8667ZM57.3966 10.6988C57.7225 11.0325 58.2114 11.2828 58.7003 11.2828C59.1892 11.2828 59.678 11.1159 60.004 10.6988C60.3299 10.3651 60.5743 9.86449 60.5743 9.2805C60.5743 8.69652 60.4114 8.19595 60.004 7.86225C59.678 7.52854 59.1892 7.27826 58.7003 7.27826C58.2114 7.27826 57.7225 7.44511 57.3966 7.86225C57.0706 8.19595 56.8262 8.69652 56.8262 9.2805C56.8262 9.86449 56.9892 10.3651 57.3966 10.6988ZM62.123 6.77765V11.7833H62.6934V7.69535L65.2193 11.7833H65.8712V6.77765H65.2193V10.6987L62.8564 6.77765H62.123Z" fill="white"/>
    <path fill-rule="evenodd" clip-rule="evenodd" d="M39.3895 20.2094V21.7111H42.8932C42.8117 22.5454 42.4858 23.2128 42.0784 23.6299C41.5895 24.1305 40.7747 24.7145 39.3895 24.7145C37.1895 24.7145 35.5599 22.9625 35.5599 20.71C35.5599 18.4574 37.271 16.7055 39.3895 16.7055C40.5302 16.7055 41.4265 17.206 42.0784 17.79L43.1376 16.7055C42.2413 15.8712 41.1006 15.2038 39.471 15.2038C36.5376 15.2038 34.0117 17.7066 34.0117 20.71C34.0117 23.7133 36.5376 26.2162 39.471 26.2162C41.1006 26.2162 42.2413 25.7156 43.2191 24.631C44.1969 23.6299 44.5228 22.2117 44.5228 21.1271C44.5228 20.7934 44.5228 20.4597 44.4413 20.2094H39.3895ZM48.4334 19.1249C46.4778 19.1249 44.9297 20.6266 44.9297 22.7123C44.9297 24.7145 46.4778 26.2997 48.4334 26.2997C50.389 26.2997 51.9371 24.798 51.9371 22.7123C51.9371 20.5432 50.389 19.1249 48.4334 19.1249ZM52.5078 22.7123C52.5078 20.6266 54.056 19.1249 56.0115 19.1249C57.9671 19.1249 59.5152 20.5432 59.5152 22.7123C59.5152 24.798 57.9671 26.2997 56.0115 26.2997C54.056 26.2997 52.5078 24.7145 52.5078 22.7123ZM54.0566 22.6288C54.0566 23.8802 54.9529 24.7979 56.0122 24.7979C57.0715 24.7979 57.9678 23.8802 57.9678 22.6288C57.9678 21.2939 57.0715 20.4597 56.0122 20.4597C54.9529 20.4597 54.0566 21.3774 54.0566 22.6288ZM46.4784 22.6288C46.4784 23.8802 47.3747 24.7979 48.4339 24.7979C49.4932 24.7979 50.3895 23.8802 50.3895 22.6288C50.3895 21.2939 49.4932 20.4597 48.4339 20.4597C47.3747 20.4597 46.4784 21.3774 46.4784 22.6288ZM73.4488 19.1249C75.2414 19.1249 76.0562 20.5432 76.3821 21.3774L76.5451 21.7946L71.9007 23.7968C72.3081 24.5477 72.797 24.8814 73.6118 24.8814C74.4266 24.8814 74.9155 24.4642 75.3229 23.8802L76.4636 24.7145C76.1377 25.2985 75.1599 26.2996 73.6118 26.2996C71.6562 26.2996 70.1896 24.7145 70.1896 22.7123C70.1896 20.5432 71.6562 19.1249 73.4488 19.1249ZM71.6562 22.5453C71.6562 21.2105 72.7154 20.4597 73.4488 20.4597C74.0191 20.4597 74.5895 20.7934 74.7525 21.2105L71.6562 22.5453ZM69.3743 25.9659H67.8262V15.5375H69.3743V25.9659ZM65.3828 19.8757C64.9754 19.4586 64.3235 19.0414 63.5087 19.0414C61.7976 19.0414 60.168 20.6266 60.168 22.6288C60.168 24.631 61.7161 26.1327 63.5087 26.1327C64.3235 26.1327 64.9754 25.7156 65.3013 25.2985H65.3828V25.799C65.3828 27.1339 64.6495 27.8847 63.5087 27.8847C62.6124 27.8847 61.9606 27.2173 61.7976 26.6333L60.4939 27.2173C60.9013 28.135 61.8791 29.303 63.5902 29.303C65.3828 29.303 66.8494 28.2184 66.8494 25.6322V19.2917H65.3828V19.8757ZM61.6348 22.6288C61.6348 23.8802 62.5311 24.7979 63.5903 24.7979C64.6496 24.7979 65.4644 23.8802 65.4644 22.6288C65.4644 21.3774 64.6496 20.4597 63.5903 20.4597C62.5311 20.4597 61.6348 21.3774 61.6348 22.6288ZM83.4714 15.5375H79.8047V25.9659H81.3528V22.0448H83.4714C85.1825 22.0448 86.8121 20.7934 86.8121 18.7912C86.8121 16.7889 85.1825 15.5375 83.4714 15.5375ZM81.3516 20.5431H83.5516C84.6108 20.5431 85.2627 19.6254 85.3442 18.7077C85.3442 17.9569 84.6923 16.9557 83.5516 16.9557H81.3516V20.5431ZM92.9228 19.0414C91.782 19.0414 90.6413 19.542 90.2339 20.6265L91.6191 21.2105C91.945 20.6265 92.4339 20.4597 93.0043 20.4597C93.8191 20.4597 94.5524 20.9602 94.6339 21.7945V21.8779C94.3894 21.7111 93.7376 21.4608 93.0857 21.4608C91.6191 21.4608 90.1524 22.2951 90.1524 23.7967C90.1524 25.215 91.3746 26.1327 92.6783 26.1327C93.7376 26.1327 94.2265 25.6321 94.6339 25.1316H94.7154V25.9658H96.182V21.9613C96.0191 20.126 94.6339 19.0414 92.9228 19.0414ZM91.5371 23.8801C91.5371 24.5476 92.2704 24.7978 92.7593 24.7978C93.5741 24.7978 94.389 24.1304 94.5519 23.1293C94.5108 23.1124 94.4704 23.0956 94.4305 23.0789C94.0753 22.9304 93.7527 22.7956 93.1667 22.7956C92.4334 22.7956 91.5371 23.0459 91.5371 23.8801ZM101.316 19.2918L99.6053 23.7969H99.5238L97.7312 19.2918H96.1016L98.7905 25.6323L97.2423 29.1362H98.7905L102.946 19.2918H101.316ZM89.1751 25.9659H87.627V15.5375H89.1751V25.9659Z" fill="white"/>
    <path d="M8.9978 7.19476C8.75336 7.44504 8.67188 7.86218 8.67188 8.36274V26.8001C8.67188 27.3007 8.83484 27.7178 9.07928 27.9681L9.16076 28.0515L19.2645 17.7066V17.5397L8.9978 7.19476Z" fill="url(#paint0_linear_1330_26533)"/>
    <path d="M22.5243 21.2105L19.1836 17.79V17.5397L22.5243 14.1192L22.6058 14.2026L26.5984 16.5386C27.7391 17.206 27.7391 18.2906 26.5984 18.958L22.5243 21.2105Z" fill="url(#paint1_linear_1330_26533)"/>
    <path d="M22.6055 21.1271L19.1832 17.6232L8.99805 28.0515C9.40545 28.4687 9.97582 28.4687 10.7092 28.135L22.6055 21.1271Z" fill="url(#paint2_linear_1330_26533)"/>
    <path d="M22.6055 14.1192L10.7092 7.19472C9.97582 6.77758 9.40545 6.86101 8.99805 7.27814L19.1832 17.6231L22.6055 14.1192Z" fill="url(#paint3_linear_1330_26533)"/>
    <path opacity="0.2" d="M22.524 21.0436L10.7092 27.8847C10.0573 28.3018 9.48694 28.2184 9.07953 27.8847L8.99805 27.9681L9.07953 28.0515C9.48694 28.3852 10.0573 28.4686 10.7092 28.0515L22.524 21.0436Z" fill="black"/>
    <path opacity="0.12" fill-rule="evenodd" clip-rule="evenodd" d="M22.5229 21.0436L26.5969 18.7077C27.0858 18.374 27.4117 18.0402 27.4117 17.6231C27.4117 18.0402 27.1673 18.4574 26.5969 18.7911L22.6043 21.127L22.5229 21.0436ZM8.68658 27.0562C8.71944 27.4049 8.81108 27.6934 8.9978 27.8846H9.00574C9.02931 27.9141 9.05385 27.942 9.07928 27.968V27.8846H9.00574C8.84258 27.6801 8.72606 27.3935 8.68658 27.0562ZM8.68658 27.0562C8.67642 26.9484 8.67188 26.8348 8.67188 26.7166V26.8C8.67188 26.8881 8.67692 26.9737 8.68658 27.0562Z" fill="black"/>
    <path opacity="0.25" d="M10.7089 7.27822L26.5978 16.5386C27.0867 16.8723 27.4126 17.206 27.4126 17.6232C27.4126 17.206 27.1682 16.7889 26.5978 16.4552L10.7089 7.19479C9.56817 6.52737 8.67188 7.02794 8.67188 8.36277V8.44619C8.67188 7.19479 9.56817 6.6108 10.7089 7.27822Z" fill="white"/>
    <defs>
        <linearGradient id="paint0_linear_1330_26533" x1="14.7314" y1="-5.2588" x2="-1.50841" y2="-0.970211" gradientUnits="userSpaceOnUse">
            <stop stop-color="#00A0FF"/>
            <stop offset="0.007" stop-color="#00A1FF"/>
            <stop offset="0.26" stop-color="#00BEFF"/>
            <stop offset="0.512" stop-color="#00D2FF"/>
            <stop offset="0.76" stop-color="#00DFFF"/>
            <stop offset="1" stop-color="#00E3FF"/>
        </linearGradient>
        <linearGradient id="paint1_linear_1330_26533" x1="28.0928" y1="9.17136" x2="8.37671" y2="9.17136" gradientUnits="userSpaceOnUse">
            <stop stop-color="#FFE000"/>
            <stop offset="0.409" stop-color="#FFBD00"/>
            <stop offset="0.775" stop-color="#FFA500"/>
            <stop offset="1" stop-color="#FF9C00"/>
        </linearGradient>
        <linearGradient id="paint2_linear_1330_26533" x1="8.73971" y1="12.2121" x2="-4.72716" y2="34.2944" gradientUnits="userSpaceOnUse">
            <stop stop-color="#FF3A44"/>
            <stop offset="1" stop-color="#C31162"/>
        </linearGradient>
        <linearGradient id="paint3_linear_1330_26533" x1="1.07974" y1="4.34113" x2="7.04715" y2="14.2177" gradientUnits="userSpaceOnUse">
            <stop stop-color="#32A071"/>
            <stop offset="0.069" stop-color="#2DA771"/>
            <stop offset="0.476" stop-color="#15CF74"/>
            <stop offset="0.801" stop-color="#06E775"/>
            <stop offset="1" stop-color="#00F076"/>
        </linearGradient>
    </defs>
</svg>
