<svg width="111" height="33" viewBox="0 0 111 33" fill="none" xmlns="http://www.w3.org/2000/svg">
    <path d="M109.795 29.1439C109.795 29.9608 109.465 30.7442 108.879 31.3215C108.293 31.8988 107.498 32.2227 106.669 32.2218H4.3797C2.65333 32.2236 1.25225 30.8458 1.25 29.1441V4.59992C1.25225 2.89759 2.65267 1.51863 4.3797 1.51819H106.668C107.497 1.51814 108.293 1.84282 108.879 2.42078C109.465 2.99875 109.794 3.78263 109.794 4.59992L109.795 29.1439Z" fill="white"/>
    <path d="M106.668 32.9378H4.37873C2.25216 32.9374 0.52737 31.24 0.523438 29.1439V4.60091C0.52647 2.50375 2.25113 0.804748 4.37873 0.802979H106.667C108.795 0.805631 110.519 2.50412 110.523 4.60091V29.1439C110.524 31.2367 108.792 32.9378 106.668 32.9378H106.668Z" fill="#A6A6A6"/>
    <path d="M109.795 29.1439C109.795 29.9608 109.465 30.7442 108.879 31.3215C108.293 31.8988 107.498 32.2227 106.669 32.2218H4.3797C2.65333 32.2236 1.25225 30.8458 1.25 29.1441V4.59992C1.25225 2.89759 2.65267 1.51863 4.3797 1.51819H106.668C107.497 1.51814 108.293 1.84282 108.879 2.42078C109.465 2.99875 109.794 3.78263 109.794 4.59992L109.795 29.1439Z" fill="black"/>
    <path fill-rule="evenodd" clip-rule="evenodd" d="M23.5396 5.79895C23.6749 7.01144 23.1874 8.20645 22.4749 9.08474C21.7314 9.94956 20.5419 10.6107 19.3835 10.5256C19.2319 9.35889 19.8188 8.11808 20.4759 7.3611C21.2186 6.5019 22.5083 5.84394 23.5396 5.79895ZM27.3328 12.7941C27.2032 12.8703 25.061 14.1309 25.0845 16.7013C25.1122 19.8048 27.8402 20.8317 27.8728 20.8429C27.8565 20.9154 27.4454 22.3247 26.4224 23.7543C25.5679 25.0136 24.6728 26.2456 23.2509 26.2673C22.5751 26.2825 22.1187 26.0911 21.6432 25.8917C21.147 25.6837 20.63 25.4669 19.8212 25.4669C18.9641 25.4669 18.4243 25.6907 17.9038 25.9065C17.4534 26.0933 17.0174 26.274 16.4028 26.2986C15.0486 26.3476 14.0142 24.955 13.1287 23.7061C11.3589 21.158 9.98108 16.5254 11.8285 13.3728C12.7235 11.8269 14.3558 10.8311 16.1005 10.8046C16.8688 10.789 17.6056 11.0809 18.2516 11.3368C18.7455 11.5324 19.1862 11.707 19.5472 11.707C19.8644 11.707 20.2929 11.5394 20.7923 11.344C21.5792 11.0361 22.5423 10.6594 23.5233 10.7612C24.1943 10.7805 26.1036 11.0223 27.3354 12.7925L27.3328 12.7941Z" fill="white"/>
    <path d="M106.668 0.802979H51.8789L73.3389 32.9378H106.668C108.795 32.936 110.519 31.2381 110.523 29.1416V4.60075C110.52 2.50383 108.795 0.80519 106.668 0.802979Z" fill="url(#paint0_linear_1330_26489)"/>
    <path fill-rule="evenodd" clip-rule="evenodd" d="M58.4804 11.5976H57.6251V6.06885H58.4804V11.5976ZM37.3827 11.6443C36.8991 11.6443 36.4809 11.621 36.1328 11.5816V6.4113C36.6197 6.33717 37.1117 6.30064 37.6044 6.30204C39.5978 6.30204 40.5157 7.2687 40.5157 8.84451C40.5157 10.6621 39.4314 11.6443 37.3827 11.6443ZM71.3351 25.3415C71.9766 24.7701 72.2995 24.03 72.2995 23.1195C72.2995 22.3811 72.0795 21.7615 71.6366 21.2648C71.1972 20.7681 70.5107 20.3359 69.5766 19.9645C68.8151 19.6689 68.2885 19.3931 67.9999 19.1401C67.6672 18.8653 67.5002 18.5148 67.5002 18.0931C67.5002 17.7105 67.6469 17.3883 67.9361 17.1238C68.2804 16.8282 68.7611 16.6795 69.3743 16.6795C70.1504 16.6795 70.8442 16.8434 71.459 17.1712L71.8951 15.7747C71.242 15.4363 70.4195 15.2666 69.4323 15.2666C68.3268 15.2666 67.4383 15.5472 66.7681 16.1081C66.0979 16.6699 65.762 17.3881 65.762 18.2658C65.762 19.6094 66.7125 20.6307 68.612 21.329C69.3107 21.5821 69.8082 21.8579 70.1088 22.1535C70.4081 22.4501 70.5606 22.8141 70.5606 23.2489C70.5606 23.7341 70.3765 24.1232 70.0119 24.414C69.6485 24.7042 69.1388 24.8502 68.4833 24.8502C67.5719 24.8502 66.7345 24.6287 65.9722 24.1834L65.5703 25.6114C66.2764 26.0559 67.2124 26.2774 68.3798 26.2774C69.6434 26.2774 70.6291 25.9649 71.3351 25.3415ZM44.2746 26.1192H42.4231L41.4089 22.978H37.8838L36.9176 26.1192H35.1152L38.6085 15.4251H40.7658L44.2746 26.1192ZM41.1033 21.6602L40.186 18.8677C40.089 18.5825 39.9063 17.9105 39.639 16.853H39.6065C39.4987 17.308 39.3268 17.9798 39.0911 18.8675L38.1895 21.6602H41.1033ZM52.1568 25.2779C52.88 24.5169 53.2411 23.4804 53.2411 22.1689C53.2411 20.9949 52.9321 20.0482 52.3165 19.3275C51.7003 18.6081 50.9299 18.249 50.0071 18.249C48.8265 18.249 47.9469 18.7096 47.3671 19.6304H47.3345L47.2376 18.4081H45.709C45.7514 19.2743 45.7734 20.1189 45.7734 20.9427V29.2462H47.5114V25.2C47.964 25.9296 48.7091 26.2938 49.7452 26.2938C50.7048 26.2938 51.5094 25.9554 52.1568 25.2779ZM51.4696 22.2315C51.4696 21.4809 51.2985 20.8621 50.9542 20.3745C50.5786 19.8673 50.0738 19.6133 49.4413 19.6133C49.0123 19.6133 48.6226 19.7549 48.2747 20.0336C47.9257 20.3148 47.6974 20.6824 47.5906 21.1371C47.5429 21.3072 47.5158 21.4823 47.5098 21.6587V22.9451C47.5098 23.5054 47.6843 23.9786 48.0333 24.3658C48.3822 24.7514 48.8355 24.9453 49.393 24.9453C50.0477 24.9453 50.5574 24.6954 50.9218 24.1995C51.2868 23.702 51.4696 23.0463 51.4696 22.2315ZM61.1537 25.2779C61.8769 24.5169 62.238 23.4804 62.238 22.1689C62.238 20.9949 61.9282 20.0482 61.3134 19.3275C60.6954 18.6081 59.925 18.249 59.003 18.249C57.8217 18.249 56.9419 18.7096 56.3632 19.6304H56.3306L56.2337 18.4081H54.7051C54.7474 19.2743 54.7694 20.1189 54.7694 20.9427V29.2462H56.5074V25.2C56.9601 25.9296 57.7052 26.2938 58.7413 26.2938C59.7017 26.2938 60.5055 25.9554 61.1537 25.2779ZM60.4663 22.2315C60.4663 21.4809 60.2941 20.8621 59.9501 20.3745C59.5742 19.8673 59.0713 19.6133 58.4386 19.6133C58.0098 19.6133 57.6201 19.7549 57.2704 20.0336C56.9214 20.3148 56.6939 20.6824 56.5873 21.1371C56.5344 21.3492 56.5059 21.5219 56.5059 21.6587V22.9451C56.5059 23.5054 56.681 23.9786 57.0284 24.3658C57.3773 24.7508 57.8305 24.9453 58.3897 24.9453C59.0452 24.9453 59.5549 24.6954 59.9183 24.1995C60.2835 23.702 60.4663 23.0463 60.4663 22.2315ZM78.0611 19.6937H76.1453V23.4376C76.1453 24.3898 76.4828 24.8648 77.1595 24.8648C77.4702 24.8648 77.7278 24.8391 77.9315 24.7853L77.9796 26.0864C77.6374 26.2125 77.1864 26.2759 76.628 26.2759C75.9416 26.2759 75.405 26.0695 75.0178 25.6563C74.6322 25.2432 74.4382 24.5515 74.4382 23.5776V19.6903H73.2969V18.4047H74.4382V16.9928L76.1453 16.4849V18.4049H78.0611V19.6937ZM85.6576 25.1196C86.3439 24.3586 86.6879 23.3854 86.6879 22.2004V22.2002C86.6879 21.0463 86.3561 20.106 85.6894 19.3779C84.9915 18.6274 84.0693 18.2512 82.9214 18.2512C81.7304 18.2512 80.7831 18.6322 80.0796 19.394C79.3776 20.155 79.0254 21.1337 79.0254 22.3287C79.0254 23.4707 79.3662 24.4175 80.0478 25.1686C80.7292 25.9184 81.6432 26.2938 82.7927 26.2938C83.9837 26.2938 84.9393 25.9031 85.6576 25.1196ZM84.8868 22.2395C84.8868 21.5332 84.7319 20.9274 84.4211 20.4203C84.0567 19.8079 83.535 19.5018 82.8591 19.5018C82.1628 19.5018 81.6287 19.8079 81.2653 20.4203C80.9538 20.9274 80.7988 21.5436 80.7988 22.2717C80.7988 22.9788 80.9538 23.5864 81.2653 24.0919C81.6411 24.7043 82.1653 25.0103 82.8444 25.0103C83.5089 25.0103 84.03 24.6978 84.4064 24.0764C84.7262 23.5574 84.8868 22.9477 84.8868 22.2395ZM91.7915 19.8674C91.9752 19.8667 92.1586 19.8826 92.3394 19.9148L92.3378 18.2803C92.2089 18.2602 92.064 18.249 91.9033 18.249C91.4504 18.2496 91.0097 18.3944 90.6471 18.6619C90.2509 18.9682 89.9622 19.3771 89.7779 19.8842H89.7298L89.6662 18.4088H88.1523C88.1875 19.2176 88.2044 20.027 88.2028 20.8364V26.1194H89.9408V22.0732C89.9408 21.4602 90.0861 20.9521 90.3747 20.5504C90.7074 20.0939 91.1804 19.8674 91.7915 19.8674ZM100.113 21.8989C100.117 22.1593 100.096 22.4196 100.049 22.676H94.8348C94.8544 23.4378 95.1072 24.0212 95.5914 24.4229C96.0308 24.7814 96.5991 24.9614 97.2968 24.9614C98.0688 24.9614 98.7732 24.8408 99.4067 24.5974L99.6791 25.7858C98.9388 26.1041 98.0647 26.2624 97.0564 26.2624C95.8433 26.2624 94.891 25.9103 94.198 25.208C93.5067 24.505 93.1602 23.5599 93.1602 22.3761C93.1602 21.2142 93.4822 20.246 94.1271 19.4737C94.8022 18.6491 95.7144 18.2369 96.8623 18.2369C97.9898 18.2369 98.8433 18.6491 99.423 19.4737C99.882 20.1269 100.113 20.9371 100.113 21.8989H100.113ZM98.1181 20.1373C98.3536 20.5078 98.4677 20.9459 98.4555 21.4544L94.8359 21.4528C94.8888 20.9362 95.061 20.4909 95.3502 20.1204C95.7024 19.6544 96.1654 19.4223 96.7338 19.4223C97.3543 19.4223 97.8173 19.6601 98.1181 20.1373ZM36.9863 7.01963C37.1761 6.98087 37.4053 6.9648 37.6742 6.9648C38.9404 6.9648 39.6131 7.64385 39.6131 8.86778C39.6131 10.2401 38.8695 10.9732 37.5634 10.9732C37.2861 10.9732 37.089 10.966 36.9863 10.9499V7.01963ZM43.3771 11.6836C42.2536 11.6836 41.5254 10.8568 41.5254 9.73407C41.5254 8.56416 42.2689 7.72986 43.4406 7.72986C44.5477 7.72986 45.2921 8.51756 45.2921 9.67221C45.2921 10.8568 44.5249 11.6836 43.3771 11.6836ZM42.3965 9.70998C42.3965 8.91445 42.7919 8.34566 43.4091 8.34566V8.34546C44.01 8.34546 44.4052 8.92268 44.4052 9.69392C44.4052 10.4509 44.0015 11.0592 43.4007 11.0592C42.8 11.0592 42.3965 10.4903 42.3965 9.70998ZM51.6976 7.80794L50.4949 11.5976H49.7114L49.2134 9.95194C49.0895 9.54935 48.9864 9.14085 48.9044 8.728H48.8881C48.8253 9.14093 48.7064 9.55487 48.5799 9.95194L48.05 11.5976H47.2584L46.1269 7.80774H47.0048L47.4401 9.6095C47.543 10.0387 47.6294 10.4436 47.7011 10.8262H47.7174C47.7801 10.5071 47.8828 10.1086 48.0337 9.61753L48.5799 7.80874H49.2761L49.7988 9.57897C49.92 9.99039 50.023 10.4068 50.1076 10.827H50.1305C50.1861 10.4374 50.273 10.0234 50.3914 9.57897L50.8585 7.80874L51.6976 7.80794ZM55.2699 11.5977H56.1242L56.1251 9.32817C56.1251 8.33822 55.5952 7.72966 54.7882 7.72966C54.2654 7.72966 53.7992 7.98694 53.5694 8.39184H53.5456L53.5056 7.80699H52.754C52.7776 8.19662 52.7857 8.55593 52.7857 8.89094V11.5977H53.6403V9.34363C53.6403 8.84454 53.9884 8.41534 54.4946 8.41534C55.0092 8.41534 55.2699 8.75135 55.2699 9.42156V11.5977ZM59.7441 9.73407C59.7441 10.8568 60.4732 11.6836 61.5958 11.6836C62.7429 11.6836 63.5108 10.8568 63.51 9.67221C63.51 8.51756 62.7665 7.72986 61.6586 7.72986C60.4877 7.72986 59.7441 8.56416 59.7441 9.73407ZM61.6276 8.34566C61.0104 8.34566 60.6152 8.91445 60.6152 9.70998C60.6152 10.4903 61.0194 11.0592 61.6187 11.0592C62.2202 11.0592 62.6229 10.4509 62.6229 9.69392C62.624 8.92268 62.2292 8.34546 61.6276 8.34546V8.34566ZM66.8155 11.1613L66.8774 11.5977L67.6478 11.5985C67.6095 11.3725 67.5924 11.0761 67.5924 10.6937V9.29784C67.5924 8.25225 67.0852 7.72986 66.081 7.72986C65.5599 7.72986 65.1164 7.83932 64.761 8.05783L64.9347 8.61136C65.2272 8.42417 65.5601 8.33018 65.939 8.33018C66.469 8.33018 66.7371 8.58023 66.7371 9.07912V9.14901C65.313 9.14901 64.4902 9.63284 64.4902 10.5682C64.4902 11.2079 64.9795 11.6834 65.6683 11.6834C66.151 11.6834 66.5318 11.5125 66.7927 11.1613H66.8155ZM66.7609 9.70995C65.812 9.70995 65.336 9.9367 65.336 10.4742C65.336 10.8718 65.5812 11.0664 65.922 11.0664C66.3565 11.0664 66.7609 10.7395 66.7609 10.295V9.70995ZM71.7015 10.9891L71.7414 11.5977L72.502 11.5975C72.4792 11.2856 72.4703 10.9425 72.4703 10.576V6.06909H71.6149V8.24422H71.5978C71.3925 7.90038 71.028 7.72906 70.5135 7.72906C69.5418 7.72906 68.8301 8.56416 68.8301 9.74953C68.8301 10.8801 69.5166 11.6836 70.4434 11.6836C71.0199 11.6836 71.4324 11.4491 71.6779 10.9891H71.7015ZM71.6159 9.36767C71.6159 8.83724 71.2594 8.38474 70.7157 8.38474C70.0822 8.38474 69.6952 8.93846 69.6952 9.71793C69.6952 10.4821 70.0969 11.0053 70.6986 11.0053C71.2358 11.0053 71.6157 10.5448 71.6157 9.99911L71.6159 9.36767ZM76.043 9.73407C76.043 10.8568 76.771 11.6834 77.8936 11.6834V11.6836C79.0423 11.6836 79.8094 10.8568 79.8088 9.67221C79.8088 8.51756 79.0653 7.72986 77.9572 7.72986C76.7865 7.72986 76.043 8.56416 76.043 9.73407ZM77.9259 8.34546C77.3094 8.34546 76.9141 8.91445 76.9141 9.70998C76.9141 10.4903 77.3176 11.0592 77.9177 11.0592C78.5194 11.0592 78.922 10.4509 78.922 9.69392C78.9238 8.92268 78.5284 8.34546 77.9259 8.34546ZM83.5472 11.5976H84.4023V9.32731C84.4023 8.33716 83.8717 7.729 83.0646 7.729C82.5427 7.729 82.0756 7.98689 81.8465 8.39178H81.8228L81.7829 7.80693H81.0312C81.0549 8.19657 81.063 8.55587 81.063 8.89088V11.5976H81.9184V9.34358C81.9184 8.84448 82.2657 8.41528 82.7719 8.41528C83.2865 8.41528 83.5472 8.75129 83.5472 9.42151V11.5976ZM90.1505 8.43942H89.2104V10.2797C89.2104 10.7483 89.375 10.9821 89.7076 10.9821C89.8584 10.9821 89.9849 10.966 90.0867 10.9427L90.1104 11.5824C89.9449 11.6451 89.7233 11.6764 89.4477 11.6764C88.7743 11.6764 88.3715 11.3099 88.3715 10.3504V8.43942H87.8105V7.80797H88.3715V7.11345L89.2104 6.8634V7.80696H90.1503L90.1505 8.43942ZM93.8199 11.5976H94.6734V9.34359C94.6734 8.35263 94.1762 7.72901 93.3626 7.72901C92.8653 7.72901 92.4755 7.93247 92.2066 8.3454H92.1895V6.06885H91.3359V11.5976H92.1895V9.31306C92.1895 8.71274 92.602 8.4161 93.0446 8.4161C93.5598 8.4161 93.8199 8.75934 93.8199 9.43758V11.5976ZM99.3093 9.90516H96.7452C96.7615 10.6228 97.2433 11.0279 97.9567 11.0279C98.3358 11.0279 98.6847 10.9652 98.9929 10.8487L99.1257 11.4338C98.7621 11.5896 98.3341 11.6676 97.8361 11.6676C96.6336 11.6676 95.9219 10.9184 95.9219 9.75754C95.9219 8.59547 96.6507 7.7218 97.7399 7.7218C98.7222 7.7218 99.3386 8.43941 99.3386 9.52336C99.3441 9.65132 99.3343 9.77948 99.3093 9.90516ZM97.6805 8.30688C98.2264 8.30688 98.5258 8.72002 98.5258 9.30507H96.7461C96.8015 8.72805 97.1896 8.30688 97.6805 8.30688Z" fill="white"/>
    <defs>
        <linearGradient id="paint0_linear_1330_26489" x1="186.951" y1="33.0231" x2="186.951" y2="-82.8706" gradientUnits="userSpaceOnUse">
            <stop stop-color="#1A1A1A" stop-opacity="0.1"/>
            <stop offset="0.123" stop-color="#212121" stop-opacity="0.151"/>
            <stop offset="0.308" stop-color="#353535" stop-opacity="0.227"/>
            <stop offset="0.532" stop-color="#575757" stop-opacity="0.318"/>
            <stop offset="0.783" stop-color="#858585" stop-opacity="0.421"/>
            <stop offset="1" stop-color="#B3B3B3" stop-opacity="0.51"/>
        </linearGradient>
    </defs>
</svg>
