<svg width="58" height="40" viewBox="0 0 58 40" fill="none" xmlns="http://www.w3.org/2000/svg">
    <path d="M56.8473 24.8005C56.5795 24.599 56.2894 24.3976 55.9993 24.1961C55.5307 23.8604 55.0397 23.5246 54.5934 23.1665C54.4818 23.077 54.3702 22.8531 54.3479 22.6965C54.3256 20.9058 54.3256 19.0704 54.3256 17.3021C54.3256 16.653 54.3256 16.0039 54.3256 15.3548C54.3256 13.5194 53.3437 12.5569 51.5137 12.5345C50.4202 12.5345 49.349 12.5345 48.2555 12.5345H45.6222C45.3767 11.281 44.7965 10.7439 43.6583 10.7439C41.8284 10.7215 39.9984 10.7215 38.1239 10.7439C37.6775 10.7439 37.3205 10.8782 37.0973 11.1244C36.8965 11.3258 36.7849 11.6168 36.7849 11.9525C36.7849 12.2883 36.9188 13.0941 38.1462 13.0941C39.262 13.0941 40.3778 13.0941 41.516 13.0941H43.1451L37.5436 34.0447H25.4481C25.2696 32.4779 24.4885 31.6273 23.8414 31.1797C22.7925 30.4634 21.3642 30.3067 19.9806 30.7544C18.3515 31.2692 17.1018 32.3212 16.2538 33.888C16.2091 33.9776 16.1422 34.0447 16.0976 34.0895C15.2495 34.1119 14.4238 34.1119 13.5312 34.1119H13.1518C13.1741 34.0223 13.1964 33.9104 13.2187 33.8209L13.6651 32.1421C13.9775 30.9335 14.3122 29.7248 14.6247 28.5161C14.7363 28.1132 14.6916 27.7327 14.5131 27.4417C14.3569 27.1955 14.1114 27.0164 13.8213 26.9492C13.1518 26.7926 12.5939 27.1507 12.3707 27.9117C12.3038 28.1579 12.2368 28.4042 12.1699 28.6504L11.7459 30.262C11.4111 31.4706 11.0987 32.6793 10.7639 33.888C10.5854 34.6043 10.6747 35.231 11.0094 35.6787C11.3665 36.1487 11.9467 36.3949 12.7055 36.4173C12.9063 36.4173 13.0848 36.4173 13.2857 36.4173H13.5535H15.7182V36.4397C15.919 38.3647 17.0572 39.6181 18.9541 39.9315C19.1772 39.9762 19.4227 39.9986 19.6682 39.9986C21.632 39.9986 23.7298 38.7228 24.7563 36.7978C24.9349 36.4621 25.0911 36.3949 25.4481 36.4173C30.1346 36.4173 34.9103 36.4173 39.5075 36.4173H43.4575C43.5914 37.626 44.1047 38.5885 44.9304 39.2376C45.7784 39.8867 46.8719 40.1329 48.077 39.9315C50.0408 39.6181 51.536 38.5213 52.5403 36.7083C52.6742 36.4621 52.7411 36.4173 52.9866 36.3949C54.5711 36.2159 55.6869 35.3205 56.1332 33.8656C56.7581 31.7392 57.316 29.5681 57.8516 27.4417C58.0971 26.4121 57.74 25.472 56.8473 24.8005ZM23.0826 34.6267C22.8818 36.1935 21.208 37.6932 19.6236 37.7155C19.1326 37.7155 18.7086 37.5812 18.4408 37.2903C18.173 37.0217 18.0391 36.6635 18.0391 36.2159C18.0391 35.3877 18.5077 34.47 19.2888 33.7985C20.0699 33.127 21.0518 32.7913 21.8775 32.9256C22.7032 33.0375 23.1942 33.7313 23.0826 34.6267ZM50.755 34.94C50.4202 36.3502 48.9027 37.6036 47.4744 37.6932C46.8942 37.7379 46.4033 37.5589 46.1131 37.2007C45.8007 36.8426 45.7114 36.3278 45.8453 35.7458C46.2024 34.2014 47.7646 32.8808 49.2821 32.8808C49.84 32.8808 50.2863 33.0598 50.5541 33.418C50.8219 33.7985 50.8889 34.3357 50.755 34.94ZM55.1736 26.9492C55.0843 26.9716 54.9951 26.9492 54.8835 26.9492C54.7942 26.9492 54.6826 26.9492 54.5934 26.9492C53.9685 26.994 53.5668 27.3969 53.5222 28.0013C53.4776 28.6504 53.8123 29.1204 54.4595 29.2547C54.6157 29.2995 54.7719 29.2995 54.9281 29.2995C54.8612 29.5905 54.7719 29.8814 54.705 30.1724C54.4372 31.202 54.1694 32.1869 53.9016 33.1718C53.79 33.5747 53.5445 33.8433 53.1651 33.9999C53.1428 33.8209 53.1205 33.6418 53.0759 33.4627C52.6072 31.3811 50.5764 30.15 48.3225 30.6201C46.4033 31.023 44.9527 32.1198 44.0154 33.888C43.9038 34.1119 43.8369 34.1342 43.636 34.1342C43.0112 34.1342 42.4086 34.1342 41.8061 34.1342H40.7126C40.4671 34.1342 40.2439 34.1342 39.9984 34.1342L40.11 33.709C40.2662 33.1494 40.4001 32.6122 40.534 32.075C40.601 31.8064 40.6679 31.5602 40.7349 31.2916C40.8911 30.7768 41.0473 30.2172 41.1589 29.68C41.2258 29.3442 41.2928 29.2995 41.6275 29.2995C44.1716 29.3219 46.738 29.3219 49.2374 29.3219H50.6657C50.9112 29.3219 51.2013 29.3219 51.4914 29.2323C52.027 29.0533 52.3171 28.6056 52.2502 28.0013C52.1832 27.4417 51.8261 27.0835 51.2906 26.994C51.112 26.9716 50.9558 26.9716 50.7996 26.9716H41.9177C41.9177 26.9492 41.94 26.9269 41.94 26.9045L42.7434 23.9051C43.5021 21.0625 44.3055 18.1079 45.0643 15.1981C45.1312 14.9519 45.1535 14.9519 45.3767 14.9519C46.7826 14.9743 48.2109 14.9743 49.5722 14.9519C50.197 14.9519 50.8219 14.9519 51.4468 14.9519C51.7592 14.9519 51.9154 14.9743 51.96 14.9967C51.9824 15.0414 52.0047 15.2205 52.0047 15.5115V16.183C51.8038 16.183 51.6253 16.183 51.4244 16.183C50.688 16.183 49.9962 16.183 49.2821 16.183H49.0812C48.6349 16.183 48.1886 16.183 47.7646 16.3173C46.4925 16.6754 45.5999 17.5483 45.2205 18.8242C44.975 19.6523 44.7742 20.5029 44.551 21.3087L44.5287 21.4206C44.2832 22.3607 44.4171 23.2113 44.8857 23.838C45.3544 24.4647 46.1578 24.8005 47.1397 24.8005C47.7869 24.8005 48.434 24.8005 49.0812 24.8005C50.1524 24.8005 51.2682 24.8005 52.3841 24.8229C52.6295 24.8229 52.942 24.9348 53.1651 25.0691C53.9239 25.5615 54.638 26.0763 55.3075 26.6135C55.3521 26.6583 55.3968 26.7702 55.4414 26.8821C55.3521 26.9045 55.2629 26.9269 55.1736 26.9492ZM51.9824 18.5332V22.4502C51.9377 22.4502 51.8708 22.4502 51.8038 22.4502H51.4691C50.0408 22.4502 48.6126 22.4502 47.1843 22.4502C46.8273 22.4502 46.7603 22.4055 46.7603 22.4055C46.7603 22.4055 46.7157 22.3159 46.8273 21.9578L46.9388 21.5101C47.0951 20.8834 47.2736 20.2343 47.4521 19.5852C47.653 18.8913 48.0993 18.5556 48.8134 18.5332C49.6391 18.5332 50.4648 18.5332 51.2682 18.5332C51.4914 18.5332 51.7369 18.5332 51.9824 18.5332Z" fill="#ECAD48"/>
    <path d="M31.5176 4.02898C28.9289 1.43254 25.4922 1.52588e-05 21.8546 1.52588e-05H21.8323C14.2894 0.0223984 8.15234 6.20015 8.15234 13.7657C8.15234 17.4365 9.60291 20.9059 12.2139 23.5023C14.8026 26.0764 18.1947 27.5089 21.81 27.5089H21.8993C29.4422 27.4641 35.5569 21.3088 35.5569 13.788V13.7657C35.5569 10.0948 34.1063 6.62543 31.5176 4.02898ZM21.8546 25.1363C18.8196 25.1363 15.9854 23.95 13.8207 21.7788C11.656 19.6077 10.4733 16.7426 10.4956 13.6985C10.5179 7.43122 15.606 2.35025 21.8546 2.35025H21.8769C24.8897 2.35025 27.7462 3.53655 29.8885 5.70772C32.0309 7.8565 33.2137 10.7215 33.2137 13.7433C33.1914 20.0329 28.1032 25.1363 21.8546 25.1363Z" fill="#ECAD48"/>
    <path d="M11.3878 25.4497C11.3655 26.166 10.8522 26.6136 10.0042 26.6136C8.62057 26.6136 7.21464 26.6136 5.78639 26.6136C4.35814 26.6136 2.92989 26.6136 1.47932 26.6136C0.631297 26.6136 0.11802 26.166 0.0957031 25.4497C0.0957031 25.1363 0.184969 24.8454 0.385817 24.6439C0.631297 24.3977 1.01068 24.2634 1.50164 24.2634C2.50588 24.2634 3.51011 24.2634 4.51435 24.2634H5.74176H6.92453C7.95108 24.2634 8.95532 24.2634 9.98187 24.2634C10.4728 24.2634 10.8522 24.3977 11.0977 24.6439C11.2985 24.8454 11.3878 25.114 11.3878 25.4497Z" fill="#ECAD48"/>
    <path d="M10.4933 29.0087C10.4933 29.7249 9.97998 30.1726 9.1989 30.1726C8.37319 30.1726 7.52517 30.1726 6.67715 30.1726C5.85144 30.1726 5.02573 30.1726 4.15539 30.1726C3.73138 30.1726 3.37432 30.0383 3.12884 29.7697C2.92799 29.5459 2.81641 29.2549 2.81641 28.9415C2.83872 28.27 3.37432 27.8224 4.15539 27.8224C4.75793 27.8224 5.38279 27.8224 5.98534 27.8224H6.69946H7.4359C8.01613 27.8224 8.59636 27.8224 9.1989 27.8224C9.97998 27.8447 10.4933 28.3148 10.4933 29.0087Z" fill="#ECAD48"/>
    <path d="M9.35703 33.3509C9.1785 33.5747 8.93302 33.6866 8.6429 33.7314C8.28584 33.7762 7.90646 33.7762 7.52708 33.7762C7.19234 33.7762 6.83527 33.7538 6.47821 33.7314C6.1881 33.709 5.9203 33.5747 5.74177 33.3509C5.54092 33.1271 5.47397 32.8137 5.49629 32.478C5.56324 31.8512 5.98725 31.4483 6.63443 31.4259C6.85759 31.4259 7.05844 31.4259 7.2816 31.4259H7.5494C7.63866 31.4259 7.75025 31.4259 7.83951 31.4259C8.06268 31.4259 8.28584 31.4259 8.509 31.4259C9.13386 31.4707 9.53556 31.8512 9.60251 32.4556C9.62483 32.8137 9.53556 33.1271 9.35703 33.3509Z" fill="#ECAD48"/>
    <path d="M21.7436 35.3205C21.7436 35.6339 21.5874 35.9249 21.3419 36.1487C21.1188 36.3501 20.8286 36.4621 20.5608 36.4621C20.5385 36.4621 20.5162 36.4621 20.4939 36.4621C19.869 36.4173 19.4004 35.9025 19.4004 35.2534C19.4004 34.94 19.5343 34.6266 19.7575 34.4252C19.9806 34.2014 20.293 34.1118 20.6278 34.1118C21.2527 34.1566 21.7659 34.6938 21.7436 35.3205Z" fill="#ECAD48"/>
    <path d="M49.437 35.3429C49.4147 35.9696 48.8791 36.4621 48.2765 36.4621H48.2542C47.9418 36.4621 47.6517 36.3054 47.4285 36.0592C47.2053 35.813 47.0938 35.4996 47.1161 35.2086C47.1607 34.5819 47.674 34.1118 48.3212 34.1118C48.6336 34.1118 48.946 34.2461 49.1469 34.47C49.3477 34.7162 49.4593 35.0295 49.437 35.3429Z" fill="#ECAD48"/>
    <path d="M28.9516 6.67008C28.7285 6.42387 28.4383 6.28957 28.1482 6.28957C27.8135 6.28957 27.4787 6.44625 27.144 6.75961C25.5595 8.34882 24.2652 9.64704 23.0824 10.8333C22.9485 10.9676 22.9039 10.99 22.7477 10.9229C21.6095 10.5424 20.583 10.7886 19.7349 11.6391C18.8869 12.4897 18.6414 13.5193 19.0208 14.6609C19.0654 14.8175 19.0654 14.8399 18.9092 14.9966C18.4629 15.4219 17.9943 15.8919 17.481 16.4291C16.9454 16.9887 16.9231 17.6378 17.3917 18.1303C17.6149 18.3541 17.8827 18.4884 18.1728 18.4884H18.1951C18.5298 18.4884 18.8423 18.3541 19.1324 18.0855C19.4448 17.7945 19.7796 17.4588 20.092 17.123L20.1143 17.0782C20.6053 16.541 20.8061 16.3844 21.2525 16.6306C21.3864 16.6977 21.5426 16.6977 21.6318 16.6977C21.6541 16.6977 21.6765 16.6977 21.6765 16.6977H21.6988C22.6584 16.7201 23.5734 16.2725 24.1536 15.5114C24.7115 14.7728 24.8677 13.8551 24.6222 12.9821C24.533 12.6911 24.5776 12.6016 24.8008 12.3778C26.2067 10.99 27.5903 9.60227 28.7508 8.41596C29.3756 7.87877 29.4203 7.16251 28.9516 6.67008ZM22.7477 14.6832C22.5245 14.9071 22.1897 15.0414 21.855 15.0414H21.8104C21.1186 15.019 20.583 14.4818 20.5606 13.7879C20.5606 13.4522 20.6945 13.1164 20.94 12.8702C21.1855 12.624 21.5202 12.4897 21.855 12.4897C22.1897 12.4897 22.5245 12.624 22.7477 12.8702C22.9931 13.1164 23.127 13.4522 23.127 13.7879C23.127 14.1237 22.9931 14.437 22.7477 14.6832Z" fill="#ECAD48"/>
    <path d="M23.0123 5.23757C23.0123 5.57332 22.99 5.81954 22.923 6.04337C22.8561 6.2672 22.7668 6.44626 22.6329 6.55818C22.4544 6.73724 22.1866 6.84916 21.8742 6.84916H21.8295C20.6914 6.82678 20.6914 5.64047 20.6914 5.23757C20.6914 4.61085 20.8253 4.16318 21.1154 3.89458C21.3163 3.69314 21.5841 3.6036 21.9188 3.6036C22.6329 3.62599 23.0123 4.18557 23.0123 5.23757Z" fill="#ECAD48"/>
    <path d="M14.9584 13.788C14.9361 14.4371 14.5344 14.84 13.8872 14.9072C13.731 14.9295 13.5525 14.9295 13.3739 14.9295C13.24 14.9295 13.1061 14.9295 12.9499 14.9295C12.2581 14.9072 11.7672 14.4371 11.7448 13.8104C11.7225 13.1613 12.2358 12.6465 12.9499 12.6017C12.9946 12.6017 13.0169 12.6017 13.0615 12.6017V12.5793H13.3963C13.4409 12.5793 13.5078 12.5793 13.5525 12.5793C13.6864 12.5793 13.8426 12.5793 13.9988 12.6017C14.6013 12.736 14.9807 13.1613 14.9584 13.788Z" fill="#ECAD48"/>
    <path d="M31.9615 13.788C31.9392 14.4371 31.4929 14.8848 30.7787 14.9295C30.6895 14.9295 30.6002 14.9295 30.4886 14.9295H30.2655C30.2208 14.9295 30.1985 14.9295 30.1539 14.9295C30.1092 14.9295 30.0646 14.9295 30.02 14.9295C29.2612 14.9071 28.7926 14.4819 28.7703 13.8104C28.7479 13.0941 29.2389 12.6241 30.02 12.5793C30.3101 12.5569 30.5556 12.5793 30.7787 12.5793C31.4929 12.6241 31.9838 13.1165 31.9615 13.788Z" fill="#ECAD48"/>
    <path d="M23.0133 22.1594C23.0133 22.2042 23.0133 22.2713 23.0133 22.3161V22.6518C23.0133 22.719 23.0133 22.7861 23.0133 22.8533C22.9463 23.4576 22.5446 23.8605 21.9421 23.8829C21.9198 23.8829 21.8752 23.8829 21.8528 23.8829C21.2726 23.8829 20.8486 23.5248 20.737 22.9652C20.6701 22.5847 20.6701 22.1594 20.7147 21.7117C20.7816 21.0626 21.3172 20.615 21.9644 20.6821C22.5893 20.7493 22.991 21.1522 23.0356 21.8013C23.0133 21.9132 23.0133 22.0475 23.0133 22.1594Z" fill="#ECAD48"/>
</svg>
