<svg width="30" height="30" viewBox="0 0 39 31" fill="none" xmlns="http://www.w3.org/2000/svg">
    <g filter="url(#filter0_d_2252_283)">
        <circle cx="15.5238" cy="15.803" r="12.1" stroke="white"/>
    </g>
    <g clip-path="url(#clip0_2252_283)">
        <path d="M12.6858 16.1942H14.0011V21.6094C14.0011 21.7164 14.0878 21.803 14.1947 21.803H16.425C16.5319 21.803 16.6185 21.7164 16.6185 21.6094V16.2197H18.1307C18.229 16.2197 18.3117 16.1459 18.323 16.0483L18.5526 14.0546C18.5589 13.9998 18.5416 13.9449 18.5049 13.9037C18.4681 13.8625 18.4156 13.8389 18.3604 13.8389H16.6186V12.5892C16.6186 12.2125 16.8214 12.0215 17.2216 12.0215C17.2786 12.0215 18.3604 12.0215 18.3604 12.0215C18.4673 12.0215 18.5539 11.9348 18.5539 11.8279V9.99796C18.5539 9.89103 18.4673 9.80441 18.3604 9.80441H16.7909C16.7798 9.80387 16.7553 9.80298 16.719 9.80298C16.4467 9.80298 15.5001 9.85644 14.7524 10.5443C13.9239 11.3066 14.0391 12.2193 14.0666 12.3775V13.8389H12.6857C12.5788 13.8389 12.4922 13.9255 12.4922 14.0324V16.0006C12.4922 16.1075 12.5788 16.1942 12.6858 16.1942Z" fill="white"/>
    </g>
    <defs>
        <filter id="filter0_d_2252_283" x="-7.51095" y="-7.23178" width="46.0688" height="46.0696" filterUnits="userSpaceOnUse" color-interpolation-filters="sRGB">
            <feFlood flood-opacity="0" result="BackgroundImageFix"/>
            <feColorMatrix in="SourceAlpha" type="matrix" values="0 0 0 0 0 0 0 0 0 0 0 0 0 0 0 0 0 0 127 0" result="hardAlpha"/>
            <feOffset/>
            <feGaussianBlur stdDeviation="5.21739"/>
            <feColorMatrix type="matrix" values="0 0 0 0 0.629167 0 0 0 0 0.629167 0 0 0 0 0.629167 0 0 0 0.15 0"/>
            <feBlend mode="normal" in2="BackgroundImageFix" result="effect1_dropShadow_2252_283"/>
            <feBlend mode="normal" in="SourceGraphic" in2="effect1_dropShadow_2252_283" result="shape"/>
        </filter>
        <clipPath id="clip0_2252_283">
            <rect width="12" height="12" fill="white" transform="translate(9.52344 9.80298)"/>
        </clipPath>
    </defs>
</svg>
