<svg width="30" height="30" viewBox="0 0 47 31" fill="none" xmlns="http://www.w3.org/2000/svg">
    <g clip-path="url(#clip0_1330_26304)">
        <path d="M26.2734 10.303H20.7734C19.2547 10.303 18.0234 11.5342 18.0234 13.053V18.553C18.0234 20.0718 19.2547 21.303 20.7734 21.303H26.2734C27.7922 21.303 29.0234 20.0718 29.0234 18.553V13.053C29.0234 11.5342 27.7922 10.303 26.2734 10.303Z" stroke="white" stroke-linecap="round" stroke-linejoin="round"/>
        <path d="M25.7239 15.4565C25.7917 15.9143 25.7136 16.3817 25.5004 16.7925C25.2873 17.2032 24.9501 17.5363 24.5368 17.7443C24.1234 17.9524 23.655 18.0248 23.1981 17.9513C22.7413 17.8778 22.3192 17.6621 21.992 17.3349C21.6648 17.0077 21.4491 16.5856 21.3756 16.1287C21.3021 15.6719 21.3745 15.2035 21.5825 14.7901C21.7906 14.3768 22.1237 14.0396 22.5344 13.8265C22.9451 13.6133 23.4126 13.5351 23.8704 13.603C24.3373 13.6723 24.7695 13.8898 25.1033 14.2236C25.4371 14.5574 25.6546 14.9896 25.7239 15.4565Z" stroke="white" stroke-linecap="round" stroke-linejoin="round"/>
        <path d="M26.5488 12.778H26.5543" stroke="white" stroke-linecap="round" stroke-linejoin="round"/>
    </g>
    <g filter="url(#filter0_d_1330_26304)">
        <circle cx="23.5238" cy="15.803" r="12.1" stroke="white"/>
    </g>
    <defs>
        <filter id="filter0_d_1330_26304" x="0.489046" y="-7.23178" width="46.0688" height="46.0696" filterUnits="userSpaceOnUse" color-interpolation-filters="sRGB">
            <feFlood flood-opacity="0" result="BackgroundImageFix"/>
            <feColorMatrix in="SourceAlpha" type="matrix" values="0 0 0 0 0 0 0 0 0 0 0 0 0 0 0 0 0 0 127 0" result="hardAlpha"/>
            <feOffset/>
            <feGaussianBlur stdDeviation="5.21739"/>
            <feColorMatrix type="matrix" values="0 0 0 0 0.629167 0 0 0 0 0.629167 0 0 0 0 0.629167 0 0 0 0.15 0"/>
            <feBlend mode="normal" in2="BackgroundImageFix" result="effect1_dropShadow_1330_26304"/>
            <feBlend mode="normal" in="SourceGraphic" in2="effect1_dropShadow_1330_26304" result="shape"/>
        </filter>
        <clipPath id="clip0_1330_26304">
            <rect width="13.2" height="13.2" fill="white" transform="translate(16.9238 9.203)"/>
        </clipPath>
    </defs>
</svg>
