<svg width="30" height="30" viewBox="0 0 47 31" fill="none" xmlns="http://www.w3.org/2000/svg">
    <g clip-path="url(#clip0_1330_26305)">
        <path d="M21.5417 21.8551C20.7336 21.8551 19.9435 21.5731 19.3174 21.0609C18.495 20.3883 18.0234 19.3954 18.0234 18.3368C18.0234 17.5657 18.2686 16.8332 18.7323 16.2188C19.18 15.6256 19.8171 15.1812 20.5262 14.9678C21.16 14.7769 21.8283 15.0939 22.0803 15.7053C22.0966 15.7444 22.1108 15.785 22.123 15.8251C22.2217 16.153 22.1869 16.4997 22.025 16.8013C21.8631 17.1028 21.5933 17.3233 21.2653 17.4221C20.8658 17.5424 20.5869 17.9185 20.5869 18.3368C20.5869 18.6711 20.7661 18.9855 21.0547 19.1576C21.2141 19.2528 21.3968 19.2987 21.5834 19.2909C22.0955 19.269 22.4968 18.8414 22.4968 18.317V10.154C22.4968 9.56924 22.8846 9.05376 23.4397 8.90071C23.5009 8.8837 23.5638 8.87152 23.6263 8.86416C23.7423 8.8502 23.8598 8.85249 23.9758 8.87025C24.4179 8.93599 24.7989 9.23371 24.9704 9.64741C25.0352 9.80351 25.0679 9.96848 25.0679 10.1378C25.0679 10.8162 25.3763 11.4454 25.9141 11.8639C26.2989 12.1634 26.7598 12.3228 27.2468 12.3246C27.7699 12.3264 28.2377 12.6383 28.4387 13.1193C28.5265 13.3299 28.556 13.5614 28.5235 13.7888C28.4334 14.4165 27.8811 14.8881 27.2375 14.8881C27.2352 14.8881 27.2331 14.8881 27.2309 14.8881C26.4661 14.8842 25.7273 14.7 25.0603 14.3505V18.3429C25.0603 18.347 25.0603 18.351 25.06 18.3553C25.0542 19.3987 24.5892 20.379 23.7839 21.0462C23.1544 21.5678 22.3582 21.8551 21.5417 21.8551ZM20.8973 15.6741C20.8471 15.6741 20.796 15.6815 20.7455 15.6967C20.1899 15.864 19.6907 16.2124 19.3399 16.6774C18.9767 17.1586 18.7849 17.7325 18.7849 18.3368C18.7849 19.166 19.1547 19.9442 19.7996 20.4716C20.2902 20.8729 20.909 21.0937 21.5417 21.0937C22.1811 21.0937 22.8049 20.8685 23.2978 20.4599C23.9306 19.9355 24.2953 19.1657 24.2986 18.3477C24.2986 18.3449 24.2986 18.3416 24.2989 18.3378V12.9152L24.9044 13.3584C25.5854 13.8568 26.3913 14.1223 27.2347 14.1266H27.2375C27.5047 14.1266 27.7331 13.9355 27.7697 13.6809C27.7829 13.588 27.7717 13.4979 27.7362 13.4129C27.6547 13.2182 27.4573 13.0868 27.2443 13.086C26.5872 13.0837 25.9654 12.8688 25.4466 12.4647C24.7222 11.9007 24.3067 11.0525 24.3067 10.1378C24.3067 10.069 24.2935 10.002 24.2674 9.93904C24.1976 9.77077 24.0428 9.6497 23.8636 9.6233L23.8603 9.6228C23.8126 9.61543 23.7643 9.61442 23.7166 9.62026C23.692 9.6233 23.6671 9.62813 23.6425 9.63498C23.4159 9.69716 23.258 9.91061 23.258 10.154V18.317C23.258 18.763 23.09 19.1876 22.7851 19.5127C22.477 19.8414 22.0615 20.0328 21.6153 20.0515C21.2801 20.0655 20.9514 19.9828 20.6643 19.8114C20.1468 19.5028 19.8252 18.9376 19.8252 18.3368C19.8252 17.5855 20.327 16.9096 21.0455 16.6931C21.1785 16.653 21.2882 16.5634 21.3539 16.4411C21.4197 16.3188 21.4339 16.1779 21.3938 16.0449C21.3889 16.0287 21.3828 16.0119 21.3762 15.9957C21.294 15.7962 21.1029 15.6741 20.8973 15.6741ZM25.0598 18.3492V18.3525C25.0598 18.3515 25.0598 18.3503 25.0598 18.3492Z" fill="white"/>
    </g>
    <g filter="url(#filter0_d_1330_26305)">
        <path d="M35.6238 15.803C35.6238 22.4856 30.2065 27.903 23.5238 27.903C16.8412 27.903 11.4238 22.4856 11.4238 15.803C11.4238 9.12036 16.8412 3.703 23.5238 3.703C30.2065 3.703 35.6238 9.12036 35.6238 15.803Z" stroke="white"/>
    </g>
    <defs>
        <filter id="filter0_d_1330_26305" x="0.489046" y="-7.23178" width="46.0688" height="46.0696" filterUnits="userSpaceOnUse" color-interpolation-filters="sRGB">
            <feFlood flood-opacity="0" result="BackgroundImageFix"/>
            <feColorMatrix in="SourceAlpha" type="matrix" values="0 0 0 0 0 0 0 0 0 0 0 0 0 0 0 0 0 0 127 0" result="hardAlpha"/>
            <feOffset/>
            <feGaussianBlur stdDeviation="5.21739"/>
            <feColorMatrix type="matrix" values="0 0 0 0 0.629167 0 0 0 0 0.629167 0 0 0 0 0.629167 0 0 0 0.15 0"/>
            <feBlend mode="normal" in2="BackgroundImageFix" result="effect1_dropShadow_1330_26305"/>
            <feBlend mode="normal" in="SourceGraphic" in2="effect1_dropShadow_1330_26305" result="shape"/>
        </filter>
        <clipPath id="clip0_1330_26305">
            <rect width="13.2" height="13.2" fill="white" transform="translate(16.9238 9.203)"/>
        </clipPath>
    </defs>
</svg>
