<svg width="30" height="30" viewBox="0 0 47 31" fill="none" xmlns="http://www.w3.org/2000/svg">
    <path fill-rule="evenodd" clip-rule="evenodd" d="M29.3999 14.5635C29.4263 13.7862 29.2591 13.0147 28.9137 12.3207C28.6794 12.036 28.3543 11.8438 27.9949 11.7777C26.5085 11.6406 25.0159 11.5844 23.5236 11.6094C22.0367 11.5833 20.5495 11.6377 19.0683 11.7723C18.7754 11.8264 18.5044 11.9661 18.2883 12.1741C17.8076 12.6248 17.7541 13.3959 17.7007 14.0476C17.6232 15.2192 17.6232 16.3948 17.7007 17.5664C17.7162 17.9332 17.7699 18.2972 17.861 18.6525C17.9254 18.9267 18.0557 19.1805 18.2403 19.391C18.4578 19.6101 18.7351 19.7576 19.0362 19.8145C20.1879 19.9591 21.3484 20.0189 22.5086 19.9937C24.3783 20.0209 26.0183 19.9937 27.9575 19.8417C28.266 19.7883 28.5511 19.6405 28.7748 19.4181C28.9244 19.266 29.0361 19.0799 29.1007 18.8751C29.2918 18.2792 29.3856 17.6555 29.3785 17.0288C29.3999 16.7247 29.3999 14.8893 29.3999 14.5635ZM22.3162 17.3546V13.9933L25.4787 15.6821C24.5919 16.1817 23.422 16.7464 22.3162 17.3546Z" fill="white"/>
    <g filter="url(#filter0_d_1330_26311)">
        <path d="M35.6238 15.803C35.6238 22.4857 30.2065 27.903 23.5238 27.903C16.8412 27.903 11.4238 22.4857 11.4238 15.803C11.4238 9.12036 16.8412 3.703 23.5238 3.703C30.2065 3.703 35.6238 9.12036 35.6238 15.803Z" stroke="white"/>
    </g>
    <defs>
        <filter id="filter0_d_1330_26311" x="0.489046" y="-7.23178" width="46.0688" height="46.0696" filterUnits="userSpaceOnUse" color-interpolation-filters="sRGB">
            <feFlood flood-opacity="0" result="BackgroundImageFix"/>
            <feColorMatrix in="SourceAlpha" type="matrix" values="0 0 0 0 0 0 0 0 0 0 0 0 0 0 0 0 0 0 127 0" result="hardAlpha"/>
            <feOffset/>
            <feGaussianBlur stdDeviation="5.21739"/>
            <feColorMatrix type="matrix" values="0 0 0 0 0.629167 0 0 0 0 0.629167 0 0 0 0 0.629167 0 0 0 0.15 0"/>
            <feBlend mode="normal" in2="BackgroundImageFix" result="effect1_dropShadow_1330_26311"/>
            <feBlend mode="normal" in="SourceGraphic" in2="effect1_dropShadow_1330_26311" result="shape"/>
        </filter>
    </defs>
</svg>
