<svg width="30" height="30" viewBox="0 0 39 31" fill="none" xmlns="http://www.w3.org/2000/svg">
    <g clip-path="url(#clip0_1330_26312)">
        <path fill-rule="evenodd" clip-rule="evenodd" d="M18.4271 8.45972H28.0564C28.74 8.45972 29.2941 9.0534 29.2941 9.78577V20.1029C29.2941 20.8353 28.7399 21.429 28.0564 21.429H22.7017L20.3579 23.2324V21.429H18.4271C17.7436 21.429 17.1895 20.8352 17.1895 20.1029V9.78582C17.1895 9.0534 17.7436 8.45972 18.4271 8.45972ZM29.2935 17.764V19.8421C29.0419 20.1173 28.6914 20.2883 28.3034 20.2883H22.1897C21.7806 20.2883 21.406 20.0424 21.2203 19.652C21.0345 19.2615 21.0688 18.7923 21.3091 18.4376L25.2304 12.65H22.808C22.0424 12.65 21.4217 11.985 21.4217 11.1647C21.4217 10.3444 22.0424 9.67944 22.808 9.67944H28.569C28.841 9.67944 29.0974 9.78869 29.2935 9.97631V11.7581L25.4848 17.3178H28.3033C28.6913 17.3178 29.0419 17.4888 29.2935 17.764Z" fill="white"/>
    </g>
    <g filter="url(#filter0_d_1330_26312)">
        <path d="M35.6238 15.803C35.6238 22.4856 30.2065 27.903 23.5238 27.903C16.8412 27.903 11.4238 22.4856 11.4238 15.803C11.4238 9.12036 16.8412 3.703 23.5238 3.703C30.2065 3.703 35.6238 9.12036 35.6238 15.803Z" stroke="white"/>
    </g>
    <defs>
        <filter id="filter0_d_1330_26312" x="0.489046" y="-7.23178" width="46.0688" height="46.0696" filterUnits="userSpaceOnUse" color-interpolation-filters="sRGB">
            <feFlood flood-opacity="0" result="BackgroundImageFix"/>
            <feColorMatrix in="SourceAlpha" type="matrix" values="0 0 0 0 0 0 0 0 0 0 0 0 0 0 0 0 0 0 127 0" result="hardAlpha"/>
            <feOffset/>
            <feGaussianBlur stdDeviation="5.21739"/>
            <feColorMatrix type="matrix" values="0 0 0 0 0.629167 0 0 0 0 0.629167 0 0 0 0 0.629167 0 0 0 0.15 0"/>
            <feBlend mode="normal" in2="BackgroundImageFix" result="effect1_dropShadow_1330_26312"/>
            <feBlend mode="normal" in="SourceGraphic" in2="effect1_dropShadow_1330_26312" result="shape"/>
        </filter>
        <clipPath id="clip0_1330_26312">
            <rect width="14" height="15" fill="white" transform="translate(16.0234 8.8551)"/>
        </clipPath>
    </defs>
</svg>
